<svg width="40" height="38" viewBox="0 0 40 38" fill="none" xmlns="http://www.w3.org/2000/svg">
<path d="M28.5049 16.7255V24.2578C28.5049 24.6752 28.3562 25.0326 28.0588 25.3298C27.7614 25.6271 27.4039 25.7757 26.9862 25.7757H13.0139C12.5962 25.7757 12.2387 25.6271 11.9412 25.3298C11.6438 25.0326 11.4951 24.6752 11.4951 24.2578V16.7255C11.7736 17.0354 12.0931 17.3105 12.4538 17.5508C14.7446 19.1066 16.3171 20.1976 17.1714 20.8237C17.5321 21.0893 17.8248 21.2964 18.0494 21.4451C18.274 21.5937 18.5731 21.7455 18.9464 21.9004C19.3198 22.0554 19.6678 22.1328 19.9905 22.1328H20H20.0095C20.3323 22.1328 20.6803 22.0554 21.0536 21.9004C21.427 21.7455 21.726 21.5937 21.9507 21.4451C22.1753 21.2964 22.468 21.0893 22.8287 20.8237C23.9044 20.0458 25.4801 18.9548 27.5557 17.5508C27.9164 17.3042 28.2328 17.029 28.5049 16.7255ZM28.5049 13.9364C28.5049 14.436 28.3499 14.9135 28.0398 15.3689C27.7297 15.8242 27.3437 16.2132 26.8818 16.5357C24.5024 18.1864 23.0217 19.2141 22.4395 19.6189C22.3762 19.6632 22.2417 19.7596 22.0361 19.9082C21.8304 20.0569 21.6596 20.177 21.5235 20.2687C21.3875 20.3604 21.2229 20.4632 21.0299 20.577C20.8369 20.6909 20.655 20.7763 20.4841 20.8332C20.3133 20.8901 20.1551 20.9186 20.0095 20.9186H20H19.9905C19.845 20.9186 19.6868 20.8901 19.5159 20.8332C19.3451 20.7763 19.1631 20.6909 18.9701 20.577C18.7771 20.4632 18.6126 20.3604 18.4765 20.2687C18.3405 20.177 18.1696 20.0569 17.964 19.9082C17.7583 19.7596 17.6238 19.6632 17.5606 19.6189C16.9847 19.2141 16.1557 18.637 15.0736 17.8876C13.9915 17.1381 13.3429 16.6875 13.1278 16.5357C12.7354 16.2701 12.3652 15.9049 12.0172 15.44C11.6691 14.9752 11.4951 14.5436 11.4951 14.1451C11.4951 13.6518 11.6264 13.2407 11.889 12.9119C12.1517 12.583 12.5266 12.4186 13.0139 12.4186H26.9862C27.3975 12.4186 27.7535 12.5672 28.0541 12.8644C28.3546 13.1617 28.5049 13.519 28.5049 13.9364Z" fill="#E84E89"/>
</svg>
