<svg width="40" height="38" viewBox="0 0 40 38" fill="none" xmlns="http://www.w3.org/2000/svg">
<path d="M29.0693 14.923C29.2148 15.3278 28.7405 16.2575 27.6463 17.7121C27.4946 17.9145 27.289 18.1833 27.0297 18.5185C26.7767 18.841 26.6028 19.0687 26.508 19.2015C26.4131 19.3343 26.3166 19.4908 26.2186 19.6711C26.1206 19.8513 26.0826 19.9841 26.1048 20.0695C26.1269 20.1549 26.168 20.264 26.2281 20.3968C26.2882 20.5296 26.391 20.6656 26.5364 20.8047C26.6819 20.9439 26.8621 21.1115 27.0771 21.3075C27.1024 21.3202 27.1183 21.3328 27.1246 21.3455C28.0163 22.174 28.6203 22.8728 28.9365 23.442C28.9555 23.4736 28.9761 23.5132 28.9982 23.5606C29.0203 23.608 29.0425 23.6918 29.0646 23.812C29.0867 23.9321 29.0851 24.0397 29.0598 24.1345C29.0346 24.2294 28.9555 24.3164 28.8227 24.3954C28.6899 24.4745 28.5033 24.514 28.263 24.514L25.8344 24.5519C25.6826 24.5836 25.5055 24.5677 25.3032 24.5045C25.1008 24.4413 24.9363 24.3717 24.8098 24.2958L24.6201 24.182C24.4304 24.0491 24.209 23.8468 23.9561 23.5748C23.7031 23.3029 23.4865 23.0578 23.3062 22.8396C23.126 22.6214 22.9331 22.438 22.7275 22.2894C22.522 22.1408 22.3433 22.0917 22.1915 22.1423C22.1726 22.1487 22.1473 22.1597 22.1157 22.1755C22.084 22.1914 22.0303 22.2372 21.9544 22.3131C21.8785 22.389 21.8105 22.4823 21.7504 22.593C21.6903 22.7036 21.6366 22.8681 21.5891 23.0863C21.5417 23.3044 21.5212 23.5495 21.5275 23.8215C21.5275 23.9163 21.5164 24.0033 21.4943 24.0824C21.4721 24.1614 21.4484 24.2199 21.4231 24.2579L21.3852 24.3053C21.2713 24.4254 21.1037 24.495 20.8824 24.514H19.7914C19.3424 24.5393 18.8807 24.4871 18.4064 24.3575C17.9321 24.2278 17.5162 24.0602 17.1589 23.8547C16.8016 23.6491 16.4759 23.4404 16.1818 23.2286C15.8877 23.0167 15.6648 22.8349 15.513 22.6831L15.2758 22.4554C15.2126 22.3922 15.1256 22.2973 15.0149 22.1708C14.9043 22.0443 14.6782 21.7566 14.3366 21.3075C13.9951 20.8585 13.6599 20.381 13.3311 19.875C13.0022 19.3691 12.6148 18.7019 12.1689 17.8734C11.7231 17.0449 11.3104 16.1848 10.9309 15.293C10.893 15.1918 10.874 15.1064 10.874 15.0369C10.874 14.9673 10.8835 14.9167 10.9025 14.8851L10.9404 14.8282C11.0353 14.708 11.2155 14.6479 11.4812 14.6479L14.0805 14.6289C14.1564 14.6416 14.2291 14.6622 14.2987 14.6906C14.3683 14.7191 14.4189 14.7459 14.4505 14.7712L14.4979 14.7997C14.5991 14.8693 14.675 14.9705 14.7256 15.1033C14.8521 15.4195 14.9975 15.7468 15.162 16.0851C15.3264 16.4235 15.4561 16.6812 15.5509 16.8583L15.7027 17.1334C15.8861 17.5129 16.0632 17.8417 16.234 18.12C16.4047 18.3983 16.5581 18.6149 16.6941 18.7699C16.83 18.9248 16.9613 19.0465 17.0878 19.1351C17.2142 19.2236 17.3218 19.2679 17.4103 19.2679C17.4988 19.2679 17.5842 19.2521 17.6664 19.2205C17.6791 19.2141 17.6949 19.1983 17.7139 19.173C17.7328 19.1477 17.7708 19.0782 17.8277 18.9643C17.8846 18.8505 17.9273 18.7019 17.9558 18.5185C17.9842 18.335 18.0143 18.0789 18.0459 17.75C18.0775 17.4212 18.0775 17.0259 18.0459 16.5642C18.0332 16.3112 18.0048 16.0804 17.9605 15.8717C17.9162 15.663 17.872 15.5175 17.8277 15.4353L17.7708 15.3215C17.6127 15.1064 17.3439 14.9705 16.9644 14.9135C16.8822 14.9009 16.898 14.825 17.0119 14.6859C17.113 14.5657 17.2332 14.4708 17.3723 14.4013C17.7075 14.2368 18.4633 14.1609 19.6396 14.1736C20.1582 14.1799 20.5851 14.221 20.9203 14.2969C21.0468 14.3285 21.1528 14.3712 21.2381 14.425C21.3235 14.4787 21.3883 14.5546 21.4326 14.6527C21.4769 14.7507 21.5101 14.8519 21.5322 14.9562C21.5544 15.0606 21.5654 15.2045 21.5654 15.3879C21.5654 15.5713 21.5623 15.7452 21.5559 15.9096C21.5496 16.0741 21.5417 16.297 21.5322 16.5784C21.5227 16.8599 21.518 17.1208 21.518 17.3611C21.518 17.4307 21.5148 17.5635 21.5085 17.7595C21.5022 17.9556 21.5006 18.1074 21.5038 18.2149C21.5069 18.3224 21.518 18.4505 21.537 18.5991C21.5559 18.7477 21.5923 18.871 21.6461 18.9691C21.6998 19.0671 21.771 19.1446 21.8595 19.2015C21.9101 19.2141 21.9639 19.2268 22.0208 19.2394C22.0777 19.2521 22.1599 19.2173 22.2674 19.1351C22.375 19.0529 22.4951 18.9438 22.6279 18.8078C22.7607 18.6718 22.9252 18.46 23.1212 18.1722C23.3173 17.8844 23.5323 17.5445 23.7663 17.1524C24.1458 16.4946 24.4841 15.7832 24.7814 15.0179C24.8067 14.9547 24.8383 14.8993 24.8763 14.8519C24.9142 14.8044 24.949 14.7712 24.9806 14.7523L25.0186 14.7238C25.0312 14.7175 25.047 14.7096 25.066 14.7001C25.085 14.6906 25.1261 14.6811 25.1893 14.6716C25.2526 14.6622 25.3158 14.6606 25.379 14.6669L28.1112 14.6479C28.3578 14.6163 28.5602 14.6242 28.7183 14.6716C28.8764 14.7191 28.9745 14.7712 29.0124 14.8282L29.0693 14.923Z" fill="#45668E"/>
</svg>
